<?xml version="1.0" ?><svg data-name="Layer 1" width="30px" height="30px" id="Layer_1" viewBox="0 0 512 512" xmlns="http://www.w3.org/2000/svg"><title/><circle cx="256" cy="256" fill="#fefefe" r="206.43"/><path d="M163.88,194.11H268.07a37.65,37.65,0,0,1,37.65,37.65v69.6a15.28,15.28,0,0,1-15.28,15.28H186.25A37.65,37.65,0,0,1,148.6,279v-69.6A15.28,15.28,0,0,1,163.88,194.11Z" fill="#2e2e2e"/><path d="M353.62,315.28l-33.91-29a12.46,12.46,0,0,1-4.92-9.92V237.83a12.44,12.44,0,0,1,4.92-9.91l33.91-32.46a7.69,7.69,0,0,1,12,6.35V308.92A7.69,7.69,0,0,1,353.62,315.28Z" fill="#2e2e2e"/></svg>